# Blender 4.5.4 LTS
# www.blender.org
mtllib PLANTA PLACEHOLDER.mtl
o Cube
v 1.000000 4.480799 -1.000000
v 0.449903 2.480799 -0.449903
v 1.000000 4.480799 1.000000
v 0.449903 2.480799 0.449903
v -1.000000 4.480799 -1.000000
v -0.449903 2.480799 -0.449903
v -1.000000 4.480799 1.000000
v -0.449903 2.480799 0.449903
v -1.000000 2.480799 -1.000000
v -1.000000 2.480799 1.000000
v 1.000000 2.480799 -1.000000
v 1.000000 2.480799 1.000000
v -0.449903 0.021607 -0.449903
v -0.449903 0.021607 0.449903
v 0.449903 0.021607 -0.449903
v 0.449903 0.021607 0.449903
vn -0.0000 1.0000 -0.0000
vn -0.0000 -0.0000 1.0000
vn -1.0000 -0.0000 -0.0000
vn 1.0000 -0.0000 -0.0000
vn -0.0000 -0.0000 -1.0000
vn -0.0000 -1.0000 -0.0000
vt 0.625000 0.500000
vt 0.875000 0.500000
vt 0.875000 0.750000
vt 0.625000 0.750000
vt 0.375000 0.750000
vt 0.625000 1.000000
vt 0.375000 1.000000
vt 0.375000 0.000000
vt 0.625000 0.000000
vt 0.625000 0.250000
vt 0.375000 0.250000
vt 0.306238 0.681238
vt 0.193762 0.681238
vt 0.375000 0.500000
vt 0.193762 0.568762
vt 0.125000 0.750000
vt 0.125000 0.500000
vt 0.306238 0.568762
s 0
usemtl Material
f 1/1/1 5/2/1 7/3/1 3/4/1
f 12/5/2 3/4/2 7/6/2 10/7/2
f 10/8/3 7/9/3 5/10/3 9/11/3
f 4/12/2 8/13/2 14/13/2 16/12/2
f 11/14/4 1/1/4 3/4/4 12/5/4
f 9/11/5 5/10/5 1/1/5 11/14/5
f 6/15/6 8/13/6 10/16/6 9/17/6
f 2/18/6 6/15/6 9/17/6 11/14/6
f 8/13/6 4/12/6 12/5/6 10/16/6
f 4/12/6 2/18/6 11/14/6 12/5/6
f 13/15/6 15/18/6 16/12/6 14/13/6
f 8/13/3 6/15/3 13/15/3 14/13/3
f 2/18/4 4/12/4 16/12/4 15/18/4
f 6/15/5 2/18/5 15/18/5 13/15/5
