# Blender 5.0.0
# www.blender.org
mtllib ASSDASDSDFDDF.mtl
o Curva_Bezier
v 0.958730 13.160707 -1.541523
v 1.604782 13.244975 -0.889998
v 1.841254 13.275820 0.000002
v 1.604782 13.244975 0.890002
v 0.958729 13.160707 1.541527
v 0.076205 13.045595 1.780002
v -0.806319 12.930483 1.541527
v -1.452372 12.846215 0.890002
v -1.688844 12.815371 0.000003
v -1.452372 12.846215 -0.889998
v -0.806320 12.930483 -1.541523
v 0.076204 13.045595 -1.779998
v 0.979797 12.779667 -1.541523
v 1.631039 12.798844 -0.889998
v 1.869411 12.805863 0.000002
v 1.631039 12.798844 0.890002
v 0.979796 12.779667 1.541527
v 0.090182 12.753470 1.780002
v -0.799432 12.727274 1.541527
v -1.450675 12.708097 0.890003
v -1.689047 12.701077 0.000002
v -1.450676 12.708097 -0.889998
v -0.799433 12.727274 -1.541523
v 0.090181 12.753470 -1.779998
v 0.986492 12.187054 -1.541523
v 1.638007 12.190563 -0.889998
v 1.876478 12.191848 0.000002
v 1.638007 12.190562 0.890002
v 0.986491 12.187053 1.541527
v 0.096505 12.182259 1.780002
v -0.793482 12.177464 1.541527
v -1.444998 12.173954 0.890002
v -1.683470 12.172669 0.000002
v -1.444999 12.173955 -0.889998
v -0.793483 12.177464 -1.541523
v 0.096504 12.182259 -1.779998
v 0.986263 11.369184 -1.541524
v 1.637785 11.367248 -0.889998
v 1.876258 11.366539 0.000002
v 1.637785 11.367248 0.890002
v 0.986262 11.369184 1.541527
v 0.096266 11.371828 1.780002
v -0.793730 11.374474 1.541527
v -1.445252 11.376410 0.890002
v -1.683726 11.377119 0.000002
v -1.445253 11.376411 -0.889998
v -0.793731 11.374475 -1.541523
v 0.096265 11.371830 -1.779998
v 0.980538 10.355702 -1.541524
v 1.632046 10.351053 -0.889998
v 1.870515 10.349351 0.000002
v 1.632046 10.351052 0.890001
v 0.980538 10.355701 1.541526
v 0.090561 10.362051 1.780001
v -0.799417 10.368402 1.541527
v -1.450925 10.373051 0.890002
v -1.689394 10.374753 0.000002
v -1.450926 10.373052 -0.889998
v -0.799418 10.368402 -1.541523
v 0.090560 10.362053 -1.779998
v 0.970441 9.184349 -1.541524
v 1.621936 9.178164 -0.889998
v 1.860401 9.175900 0.000001
v 1.621936 9.178164 0.890001
v 0.970441 9.184348 1.541526
v 0.080481 9.192796 1.780001
v -0.809479 9.201244 1.541527
v -1.460975 9.207430 0.890002
v -1.699439 9.209694 0.000002
v -1.460975 9.207430 -0.889998
v -0.809480 9.201245 -1.541524
v 0.080480 9.192798 -1.779999
v 0.957069 7.894266 -1.541524
v 1.608555 7.887189 -0.889999
v 1.847016 7.884598 0.000001
v 1.608555 7.887188 0.890001
v 0.957068 7.894265 1.541526
v 0.067121 7.903932 1.780001
v -0.822826 7.913599 1.541527
v -1.474313 7.920676 0.890002
v -1.712774 7.923267 0.000002
v -1.474314 7.920677 -0.889998
v -0.822827 7.913600 -1.541524
v 0.067120 7.903933 -1.779999
v 0.941515 6.525018 -1.541524
v 1.592996 6.517468 -0.889999
v 1.831455 6.514705 0.000001
v 1.592996 6.517468 0.890001
v 0.941514 6.525017 1.541526
v 0.051574 6.535328 1.780001
v -0.838366 6.545640 1.541526
v -1.489848 6.553189 0.890002
v -1.728307 6.555953 0.000002
v -1.489848 6.553190 -0.889999
v -0.838367 6.545641 -1.541524
v 0.051573 6.535329 -1.779999
v 0.924872 5.116342 -1.541524
v 1.576351 5.108645 -0.889999
v 1.814809 5.105827 0.000001
v 1.576351 5.108644 0.890001
v 0.924872 5.116341 1.541526
v 0.034934 5.126855 1.780001
v -0.855004 5.137370 1.541526
v -1.506484 5.145067 0.890001
v -1.744942 5.147884 0.000002
v -1.506485 5.145067 -0.889999
v -0.855005 5.137371 -1.541524
v 0.034933 5.126856 -1.779999
v 0.908234 3.708071 -1.541525
v 1.559715 3.700522 -0.889999
v 1.798174 3.697759 0.000001
v 1.559715 3.700522 0.890001
v 0.908234 3.708071 1.541526
v 0.018293 3.718382 1.780001
v -0.871647 3.728694 1.541526
v -1.523128 3.736243 0.890001
v -1.761587 3.739007 0.000001
v -1.523129 3.736244 -0.889999
v -0.871648 3.728695 -1.541524
v 0.018292 3.718383 -1.780000
v 0.892694 2.340112 -1.541525
v 1.544181 2.333035 -0.890000
v 1.782641 2.330445 0.000001
v 1.544181 2.333035 0.890000
v 0.892694 2.340111 1.541525
v 0.002746 2.349779 1.780000
v -0.887201 2.359446 1.541526
v -1.538688 2.366523 0.890001
v -1.777149 2.369113 0.000001
v -1.538688 2.366524 -0.889999
v -0.887202 2.359447 -1.541525
v 0.002746 2.349780 -1.780000
v 0.879347 1.052467 -1.541525
v 1.530842 1.046282 -0.890000
v 1.769306 1.044018 0.000000
v 1.530842 1.046281 0.890000
v 0.879346 1.052466 1.541525
v -0.010613 1.060914 1.780000
v -0.900573 1.069363 1.541526
v -1.552069 1.075548 0.890001
v -1.790534 1.077812 0.000001
v -1.552070 1.075548 -0.889999
v -0.900574 1.069364 -1.541525
v -0.010614 1.060915 -1.780000
v 0.869283 -0.114897 -1.541525
v 1.520790 -0.119696 -0.890000
v 1.759258 -0.121453 0.000000
v 1.520790 -0.119697 0.890000
v 0.869283 -0.114897 1.541525
v -0.020693 -0.108342 1.780000
v -0.910669 -0.101785 1.541525
v -1.562176 -0.096986 0.890001
v -1.800645 -0.095229 0.000001
v -1.562177 -0.096985 -0.889999
v -0.910670 -0.101785 -1.541525
v -0.020694 -0.108341 -1.780000
vn 0.5089 0.0285 -0.8603
vn 0.8677 0.0508 -0.4944
vn 0.9982 0.0593 -0.0000
vn 0.8677 0.0508 0.4944
vn 0.5089 0.0285 0.8603
vn 0.0134 0.0020 0.9999
vn -0.4888 -0.0147 0.8723
vn -0.8617 -0.0124 0.5072
vn -1.0000 -0.0059 -0.0000
vn -0.8617 -0.0124 -0.5072
vn -0.4888 -0.0147 -0.8723
vn 0.0134 0.0020 -0.9999
vn 0.5026 0.0169 -0.8644
vn 0.8666 0.0303 -0.4982
vn 0.9994 0.0354 -0.0000
vn 0.8666 0.0303 0.4982
vn 0.5026 0.0169 0.8644
vn 0.0030 0.0008 1.0000
vn -0.4989 -0.0101 0.8666
vn -0.8662 -0.0107 0.4995
vn -1.0000 -0.0083 -0.0000
vn -0.8662 -0.0107 -0.4995
vn -0.4989 -0.0101 -0.8666
vn 0.0030 0.0008 -1.0000
vn 0.5007 0.0028 -0.8656
vn 0.8663 0.0048 -0.4996
vn 1.0000 0.0056 -0.0000
vn 0.8663 0.0048 0.4996
vn 0.5007 0.0028 0.8656
vn 0.0009 -0.0000 1.0000
vn -0.4993 -0.0026 0.8664
vn -0.8658 -0.0045 0.5004
vn -1.0000 -0.0051 -0.0000
vn -0.8658 -0.0045 -0.5004
vn -0.4993 -0.0026 -0.8664
vn 0.0009 -0.0000 -1.0000
vn 0.5003 -0.0015 -0.8658
vn 0.8661 -0.0026 -0.4998
vn 1.0000 -0.0030 -0.0000
vn 0.8661 -0.0026 0.4998
vn 0.5003 -0.0015 0.8658
vn 0.0004 -0.0000 1.0000
vn -0.4997 0.0015 0.8662
vn -0.8659 0.0026 0.5002
vn -1.0000 0.0030 -0.0000
vn -0.8659 0.0026 -0.5002
vn -0.4997 0.0015 -0.8662
vn 0.0004 -0.0000 -1.0000
vn 0.5002 -0.0036 -0.8659
vn 0.8661 -0.0062 -0.4999
vn 1.0000 -0.0071 -0.0000
vn 0.8661 -0.0062 0.4999
vn 0.5002 -0.0036 0.8659
vn 0.0002 -0.0000 1.0000
vn -0.4998 0.0036 0.8661
vn -0.8659 0.0062 0.5001
vn -1.0000 0.0071 -0.0000
vn -0.8659 0.0062 -0.5001
vn -0.4998 0.0036 -0.8661
vn 0.0002 -0.0000 -1.0000
vn 0.5001 -0.0047 -0.8660
vn 0.8660 -0.0082 -0.4999
vn 1.0000 -0.0095 -0.0000
vn 0.8660 -0.0082 0.4999
vn 0.5001 -0.0047 0.8660
vn 0.0001 -0.0000 1.0000
vn -0.4999 0.0047 0.8661
vn -0.8660 0.0082 0.5001
vn -1.0000 0.0095 -0.0000
vn -0.8660 0.0082 -0.5001
vn -0.4999 0.0047 -0.8661
vn 0.0001 -0.0000 -1.0000
vn 0.5000 -0.0054 -0.8660
vn 0.8660 -0.0094 -0.5000
vn 0.9999 -0.0109 -0.0000
vn 0.8660 -0.0094 0.5000
vn 0.5000 -0.0054 0.8660
vn -0.4999 0.0054 0.8661
vn -0.8660 0.0094 0.5000
vn -0.9999 0.0109 -0.0000
vn -0.8660 0.0094 -0.5000
vn -0.4999 0.0054 -0.8661
vn 0.5000 -0.0058 -0.8660
vn 0.8660 -0.0100 -0.5000
vn 0.9999 -0.0116 -0.0000
vn 0.8660 -0.0100 0.5000
vn 0.5000 -0.0058 0.8660
vn -0.0000 -0.0000 1.0000
vn -0.4999 0.0058 0.8660
vn -0.8660 0.0100 0.5000
vn -0.9999 0.0116 -0.0000
vn -0.8660 0.0100 -0.5000
vn -0.4999 0.0058 -0.8660
vn -0.0000 -0.0000 -1.0000
vn 0.5000 -0.0059 -0.8660
vn 0.8660 -0.0102 -0.5000
vn 0.9999 -0.0118 -0.0000
vn 0.8660 -0.0102 0.5000
vn 0.5000 -0.0059 0.8660
vn -0.5000 0.0059 0.8660
vn -0.8660 0.0102 0.5000
vn -0.9999 0.0118 -0.0000
vn -0.8660 0.0102 -0.5000
vn -0.5000 0.0059 -0.8660
vn 0.4999 -0.0058 -0.8660
vn 0.4999 -0.0058 0.8660
vn -0.5000 0.0058 0.8660
vn -0.5000 0.0058 -0.8660
vn 0.4999 -0.0054 -0.8661
vn 0.4999 -0.0054 0.8661
vn -0.0001 -0.0000 1.0000
vn -0.5000 0.0054 0.8660
vn -0.5000 0.0054 -0.8660
vn -0.0001 -0.0000 -1.0000
vn 0.4999 -0.0047 -0.8661
vn 0.8660 -0.0082 -0.5001
vn 0.8660 -0.0082 0.5001
vn 0.4999 -0.0047 0.8661
vn -0.5001 0.0047 0.8660
vn -0.8660 0.0082 0.4999
vn -0.8660 0.0082 -0.4999
vn -0.5001 0.0047 -0.8660
vn 0.4998 -0.0043 -0.8661
vn 0.8659 -0.0075 -0.5001
vn 1.0000 -0.0086 -0.0000
vn 0.8659 -0.0075 0.5001
vn 0.4998 -0.0043 0.8661
vn -0.0002 -0.0000 1.0000
vn -0.5001 0.0043 0.8659
vn -0.8660 0.0075 0.4999
vn -1.0000 0.0086 -0.0000
vn -0.8660 0.0075 -0.4999
vn -0.5001 0.0043 -0.8659
vn -0.0002 -0.0000 -1.0000
vt 0.000000 1.000000
vt 0.083333 1.000000
vt 0.083333 0.916667
vt 0.000000 0.916667
vt 0.000000 0.083333
vt 0.083333 0.083333
vt 0.083333 0.000000
vt 0.000000 0.000000
vt 0.000000 0.166667
vt 0.083333 0.166667
vt 0.000000 0.250000
vt 0.083333 0.250000
vt 0.000000 0.333333
vt 0.083333 0.333333
vt 0.000000 0.416667
vt 0.083333 0.416667
vt 0.000000 0.500000
vt 0.083333 0.500000
vt 0.000000 0.583333
vt 0.083333 0.583333
vt 0.000000 0.666667
vt 0.083333 0.666667
vt 0.000000 0.750000
vt 0.083333 0.750000
vt 0.000000 0.833333
vt 0.083333 0.833333
vt 0.166667 1.000000
vt 0.166667 0.916667
vt 0.166667 0.083333
vt 0.166667 0.000000
vt 0.166667 0.166667
vt 0.166667 0.250000
vt 0.166667 0.333333
vt 0.166667 0.416667
vt 0.166667 0.500000
vt 0.166667 0.583333
vt 0.166667 0.666667
vt 0.166667 0.750000
vt 0.166667 0.833333
vt 0.250000 1.000000
vt 0.250000 0.916667
vt 0.250000 0.083333
vt 0.250000 0.000000
vt 0.250000 0.166667
vt 0.250000 0.250000
vt 0.250000 0.333333
vt 0.250000 0.416667
vt 0.250000 0.500000
vt 0.250000 0.583333
vt 0.250000 0.666667
vt 0.250000 0.750000
vt 0.250000 0.833333
vt 0.333333 1.000000
vt 0.333333 0.916667
vt 0.333333 0.083333
vt 0.333333 0.000000
vt 0.333333 0.166667
vt 0.333333 0.250000
vt 0.333333 0.333333
vt 0.333333 0.416667
vt 0.333333 0.500000
vt 0.333333 0.583333
vt 0.333333 0.666667
vt 0.333333 0.750000
vt 0.333333 0.833333
vt 0.416667 1.000000
vt 0.416667 0.916667
vt 0.416667 0.083333
vt 0.416667 0.000000
vt 0.416667 0.166667
vt 0.416667 0.250000
vt 0.416667 0.333333
vt 0.416667 0.416667
vt 0.416667 0.500000
vt 0.416667 0.583333
vt 0.416667 0.666667
vt 0.416667 0.750000
vt 0.416667 0.833333
vt 0.500000 1.000000
vt 0.500000 0.916667
vt 0.500000 0.083333
vt 0.500000 0.000000
vt 0.500000 0.166667
vt 0.500000 0.250000
vt 0.500000 0.333333
vt 0.500000 0.416667
vt 0.500000 0.500000
vt 0.500000 0.583333
vt 0.500000 0.666667
vt 0.500000 0.750000
vt 0.500000 0.833333
vt 0.583333 1.000000
vt 0.583333 0.916667
vt 0.583333 0.083333
vt 0.583333 0.000000
vt 0.583333 0.166667
vt 0.583333 0.250000
vt 0.583333 0.333333
vt 0.583333 0.416667
vt 0.583333 0.500000
vt 0.583333 0.583333
vt 0.583333 0.666667
vt 0.583333 0.750000
vt 0.583333 0.833333
vt 0.666667 1.000000
vt 0.666667 0.916667
vt 0.666667 0.083333
vt 0.666667 0.000000
vt 0.666667 0.166667
vt 0.666667 0.250000
vt 0.666667 0.333333
vt 0.666667 0.416667
vt 0.666667 0.500000
vt 0.666667 0.583333
vt 0.666667 0.666667
vt 0.666667 0.750000
vt 0.666667 0.833333
vt 0.750000 1.000000
vt 0.750000 0.916667
vt 0.750000 0.083333
vt 0.750000 0.000000
vt 0.750000 0.166667
vt 0.750000 0.250000
vt 0.750000 0.333333
vt 0.750000 0.416667
vt 0.750000 0.500000
vt 0.750000 0.583333
vt 0.750000 0.666667
vt 0.750000 0.750000
vt 0.750000 0.833333
vt 0.833333 1.000000
vt 0.833333 0.916667
vt 0.833333 0.083333
vt 0.833333 0.000000
vt 0.833333 0.166667
vt 0.833333 0.250000
vt 0.833333 0.333333
vt 0.833333 0.416667
vt 0.833333 0.500000
vt 0.833333 0.583333
vt 0.833333 0.666667
vt 0.833333 0.750000
vt 0.833333 0.833333
vt 0.916667 1.000000
vt 0.916667 0.916667
vt 0.916667 0.083333
vt 0.916667 0.000000
vt 0.916667 0.166667
vt 0.916667 0.250000
vt 0.916667 0.333333
vt 0.916667 0.416667
vt 0.916667 0.500000
vt 0.916667 0.583333
vt 0.916667 0.666667
vt 0.916667 0.750000
vt 0.916667 0.833333
vt 1.000000 1.000000
vt 1.000000 0.916667
vt 1.000000 0.083333
vt 1.000000 0.000000
vt 1.000000 0.166667
vt 1.000000 0.250000
vt 1.000000 0.333333
vt 1.000000 0.416667
vt 1.000000 0.500000
vt 1.000000 0.583333
vt 1.000000 0.666667
vt 1.000000 0.750000
vt 1.000000 0.833333
s 1
f 1/1/1 13/2/13 24/3/24 12/4/12
f 2/5/2 14/6/14 13/7/13 1/8/1
f 3/9/3 15/10/15 14/6/14 2/5/2
f 4/11/4 16/12/16 15/10/15 3/9/3
f 5/13/5 17/14/17 16/12/16 4/11/4
f 6/15/6 18/16/18 17/14/17 5/13/5
f 7/17/7 19/18/19 18/16/18 6/15/6
f 8/19/8 20/20/20 19/18/19 7/17/7
f 9/21/9 21/22/21 20/20/20 8/19/8
f 10/23/10 22/24/22 21/22/21 9/21/9
f 11/25/11 23/26/23 22/24/22 10/23/10
f 12/4/12 24/3/24 23/26/23 11/25/11
f 13/2/13 25/27/25 36/28/36 24/3/24
f 14/6/14 26/29/26 25/30/25 13/7/13
f 15/10/15 27/31/27 26/29/26 14/6/14
f 16/12/16 28/32/28 27/31/27 15/10/15
f 17/14/17 29/33/29 28/32/28 16/12/16
f 18/16/18 30/34/30 29/33/29 17/14/17
f 19/18/19 31/35/31 30/34/30 18/16/18
f 20/20/20 32/36/32 31/35/31 19/18/19
f 21/22/21 33/37/33 32/36/32 20/20/20
f 22/24/22 34/38/34 33/37/33 21/22/21
f 23/26/23 35/39/35 34/38/34 22/24/22
f 24/3/24 36/28/36 35/39/35 23/26/23
f 25/27/25 37/40/37 48/41/48 36/28/36
f 26/29/26 38/42/38 37/43/37 25/30/25
f 27/31/27 39/44/39 38/42/38 26/29/26
f 28/32/28 40/45/40 39/44/39 27/31/27
f 29/33/29 41/46/41 40/45/40 28/32/28
f 30/34/30 42/47/42 41/46/41 29/33/29
f 31/35/31 43/48/43 42/47/42 30/34/30
f 32/36/32 44/49/44 43/48/43 31/35/31
f 33/37/33 45/50/45 44/49/44 32/36/32
f 34/38/34 46/51/46 45/50/45 33/37/33
f 35/39/35 47/52/47 46/51/46 34/38/34
f 36/28/36 48/41/48 47/52/47 35/39/35
f 37/40/37 49/53/49 60/54/60 48/41/48
f 38/42/38 50/55/50 49/56/49 37/43/37
f 39/44/39 51/57/51 50/55/50 38/42/38
f 40/45/40 52/58/52 51/57/51 39/44/39
f 41/46/41 53/59/53 52/58/52 40/45/40
f 42/47/42 54/60/54 53/59/53 41/46/41
f 43/48/43 55/61/55 54/60/54 42/47/42
f 44/49/44 56/62/56 55/61/55 43/48/43
f 45/50/45 57/63/57 56/62/56 44/49/44
f 46/51/46 58/64/58 57/63/57 45/50/45
f 47/52/47 59/65/59 58/64/58 46/51/46
f 48/41/48 60/54/60 59/65/59 47/52/47
f 49/53/49 61/66/61 72/67/72 60/54/60
f 50/55/50 62/68/62 61/69/61 49/56/49
f 51/57/51 63/70/63 62/68/62 50/55/50
f 52/58/52 64/71/64 63/70/63 51/57/51
f 53/59/53 65/72/65 64/71/64 52/58/52
f 54/60/54 66/73/66 65/72/65 53/59/53
f 55/61/55 67/74/67 66/73/66 54/60/54
f 56/62/56 68/75/68 67/74/67 55/61/55
f 57/63/57 69/76/69 68/75/68 56/62/56
f 58/64/58 70/77/70 69/76/69 57/63/57
f 59/65/59 71/78/71 70/77/70 58/64/58
f 60/54/60 72/67/72 71/78/71 59/65/59
f 61/66/61 73/79/73 84/80/72 72/67/72
f 62/68/62 74/81/74 73/82/73 61/69/61
f 63/70/63 75/83/75 74/81/74 62/68/62
f 64/71/64 76/84/76 75/83/75 63/70/63
f 65/72/65 77/85/77 76/84/76 64/71/64
f 66/73/66 78/86/66 77/85/77 65/72/65
f 67/74/67 79/87/78 78/86/66 66/73/66
f 68/75/68 80/88/79 79/87/78 67/74/67
f 69/76/69 81/89/80 80/88/79 68/75/68
f 70/77/70 82/90/81 81/89/80 69/76/69
f 71/78/71 83/91/82 82/90/81 70/77/70
f 72/67/72 84/80/72 83/91/82 71/78/71
f 73/79/73 85/92/83 96/93/94 84/80/72
f 74/81/74 86/94/84 85/95/83 73/82/73
f 75/83/75 87/96/85 86/94/84 74/81/74
f 76/84/76 88/97/86 87/96/85 75/83/75
f 77/85/77 89/98/87 88/97/86 76/84/76
f 78/86/66 90/99/88 89/98/87 77/85/77
f 79/87/78 91/100/89 90/99/88 78/86/66
f 80/88/79 92/101/90 91/100/89 79/87/78
f 81/89/80 93/102/91 92/101/90 80/88/79
f 82/90/81 94/103/92 93/102/91 81/89/80
f 83/91/82 95/104/93 94/103/92 82/90/81
f 84/80/72 96/93/94 95/104/93 83/91/82
f 85/92/83 97/105/95 108/106/94 96/93/94
f 86/94/84 98/107/96 97/108/95 85/95/83
f 87/96/85 99/109/97 98/107/96 86/94/84
f 88/97/86 100/110/98 99/109/97 87/96/85
f 89/98/87 101/111/99 100/110/98 88/97/86
f 90/99/88 102/112/88 101/111/99 89/98/87
f 91/100/89 103/113/100 102/112/88 90/99/88
f 92/101/90 104/114/101 103/113/100 91/100/89
f 93/102/91 105/115/102 104/114/101 92/101/90
f 94/103/92 106/116/103 105/115/102 93/102/91
f 95/104/93 107/117/104 106/116/103 94/103/92
f 96/93/94 108/106/94 107/117/104 95/104/93
f 97/105/95 109/118/105 120/119/94 108/106/94
f 98/107/96 110/120/84 109/121/105 97/108/95
f 99/109/97 111/122/85 110/120/84 98/107/96
f 100/110/98 112/123/86 111/122/85 99/109/97
f 101/111/99 113/124/106 112/123/86 100/110/98
f 102/112/88 114/125/88 113/124/106 101/111/99
f 103/113/100 115/126/107 114/125/88 102/112/88
f 104/114/101 116/127/90 115/126/107 103/113/100
f 105/115/102 117/128/91 116/127/90 104/114/101
f 106/116/103 118/129/92 117/128/91 105/115/102
f 107/117/104 119/130/108 118/129/92 106/116/103
f 108/106/94 120/119/94 119/130/108 107/117/104
f 109/118/105 121/131/109 132/132/114 120/119/94
f 110/120/84 122/133/74 121/134/109 109/121/105
f 111/122/85 123/135/75 122/133/74 110/120/84
f 112/123/86 124/136/76 123/135/75 111/122/85
f 113/124/106 125/137/110 124/136/76 112/123/86
f 114/125/88 126/138/111 125/137/110 113/124/106
f 115/126/107 127/139/112 126/138/111 114/125/88
f 116/127/90 128/140/79 127/139/112 115/126/107
f 117/128/91 129/141/80 128/140/79 116/127/90
f 118/129/92 130/142/81 129/141/80 117/128/91
f 119/130/108 131/143/113 130/142/81 118/129/92
f 120/119/94 132/132/114 131/143/113 119/130/108
f 121/131/109 133/144/115 144/145/114 132/132/114
f 122/133/74 134/146/116 133/147/115 121/134/109
f 123/135/75 135/148/63 134/146/116 122/133/74
f 124/136/76 136/149/117 135/148/63 123/135/75
f 125/137/110 137/150/118 136/149/117 124/136/76
f 126/138/111 138/151/111 137/150/118 125/137/110
f 127/139/112 139/152/119 138/151/111 126/138/111
f 128/140/79 140/153/120 139/152/119 127/139/112
f 129/141/80 141/154/69 140/153/120 128/140/79
f 130/142/81 142/155/121 141/154/69 129/141/80
f 131/143/113 143/156/122 142/155/121 130/142/81
f 132/132/114 144/145/114 143/156/122 131/143/113
f 133/144/115 145/157/123 156/158/134 144/145/114
f 134/146/116 146/159/124 145/160/123 133/147/115
f 135/148/63 147/161/125 146/159/124 134/146/116
f 136/149/117 148/162/126 147/161/125 135/148/63
f 137/150/118 149/163/127 148/162/126 136/149/117
f 138/151/111 150/164/128 149/163/127 137/150/118
f 139/152/119 151/165/129 150/164/128 138/151/111
f 140/153/120 152/166/130 151/165/129 139/152/119
f 141/154/69 153/167/131 152/166/130 140/153/120
f 142/155/121 154/168/132 153/167/131 141/154/69
f 143/156/122 155/169/133 154/168/132 142/155/121
f 144/145/114 156/158/134 155/169/133 143/156/122
o Curva_Bezier
v 0.958730 13.160707 -1.541523
v 1.604782 13.244975 -0.889998
v 1.841254 13.275820 0.000002
v 1.604782 13.244975 0.890002
v 0.958729 13.160707 1.541527
v 0.076205 13.045595 1.780002
v -0.806319 12.930483 1.541527
v -1.452372 12.846215 0.890002
v -1.688844 12.815371 0.000003
v -1.452372 12.846215 -0.889998
v -0.806320 12.930483 -1.541523
v 0.076204 13.045595 -1.779998
v 0.979797 12.779667 -1.541523
v 1.631039 12.798844 -0.889998
v 1.869411 12.805863 0.000002
v 1.631039 12.798844 0.890002
v 0.979796 12.779667 1.541527
v 0.090182 12.753470 1.780002
v -0.799432 12.727274 1.541527
v -1.450675 12.708097 0.890003
v -1.689047 12.701077 0.000002
v -1.450676 12.708097 -0.889998
v -0.799433 12.727274 -1.541523
v 0.090181 12.753470 -1.779998
v 0.986492 12.187054 -1.541523
v 1.638007 12.190563 -0.889998
v 1.876478 12.191848 0.000002
v 1.638007 12.190562 0.890002
v 0.986491 12.187053 1.541527
v 0.096505 12.182259 1.780002
v -0.793482 12.177464 1.541527
v -1.444998 12.173954 0.890002
v -1.683470 12.172669 0.000002
v -1.444999 12.173955 -0.889998
v -0.793483 12.177464 -1.541523
v 0.096504 12.182259 -1.779998
v 0.986263 11.369184 -1.541524
v 1.637785 11.367248 -0.889998
v 1.876258 11.366539 0.000002
v 1.637785 11.367248 0.890002
v 0.986262 11.369184 1.541527
v 0.096266 11.371828 1.780002
v -0.793730 11.374474 1.541527
v -1.445252 11.376410 0.890002
v -1.683726 11.377119 0.000002
v -1.445253 11.376411 -0.889998
v -0.793731 11.374475 -1.541523
v 0.096265 11.371830 -1.779998
v 0.980538 10.355702 -1.541524
v 1.632046 10.351053 -0.889998
v 1.870515 10.349351 0.000002
v 1.632046 10.351052 0.890001
v 0.980538 10.355701 1.541526
v 0.090561 10.362051 1.780001
v -0.799417 10.368402 1.541527
v -1.450925 10.373051 0.890002
v -1.689394 10.374753 0.000002
v -1.450926 10.373052 -0.889998
v -0.799418 10.368402 -1.541523
v 0.090560 10.362053 -1.779998
v 0.970441 9.184349 -1.541524
v 1.621936 9.178164 -0.889998
v 1.860401 9.175900 0.000001
v 1.621936 9.178164 0.890001
v 0.970441 9.184348 1.541526
v 0.080481 9.192796 1.780001
v -0.809479 9.201244 1.541527
v -1.460975 9.207430 0.890002
v -1.699439 9.209694 0.000002
v -1.460975 9.207430 -0.889998
v -0.809480 9.201245 -1.541524
v 0.080480 9.192798 -1.779999
v 0.957069 7.894266 -1.541524
v 1.608555 7.887189 -0.889999
v 1.847016 7.884598 0.000001
v 1.608555 7.887188 0.890001
v 0.957068 7.894265 1.541526
v 0.067121 7.903932 1.780001
v -0.822826 7.913599 1.541527
v -1.474313 7.920676 0.890002
v -1.712774 7.923267 0.000002
v -1.474314 7.920677 -0.889998
v -0.822827 7.913600 -1.541524
v 0.067120 7.903933 -1.779999
v 0.941515 6.525018 -1.541524
v 1.592996 6.517468 -0.889999
v 1.831455 6.514705 0.000001
v 1.592996 6.517468 0.890001
v 0.941514 6.525017 1.541526
v 0.051574 6.535328 1.780001
v -0.838366 6.545640 1.541526
v -1.489848 6.553189 0.890002
v -1.728307 6.555953 0.000002
v -1.489848 6.553190 -0.889999
v -0.838367 6.545641 -1.541524
v 0.051573 6.535329 -1.779999
v 0.924872 5.116342 -1.541524
v 1.576351 5.108645 -0.889999
v 1.814809 5.105827 0.000001
v 1.576351 5.108644 0.890001
v 0.924872 5.116341 1.541526
v 0.034934 5.126855 1.780001
v -0.855004 5.137370 1.541526
v -1.506484 5.145067 0.890001
v -1.744942 5.147884 0.000002
v -1.506485 5.145067 -0.889999
v -0.855005 5.137371 -1.541524
v 0.034933 5.126856 -1.779999
v 0.908234 3.708071 -1.541525
v 1.559715 3.700522 -0.889999
v 1.798174 3.697759 0.000001
v 1.559715 3.700522 0.890001
v 0.908234 3.708071 1.541526
v 0.018293 3.718382 1.780001
v -0.871647 3.728694 1.541526
v -1.523128 3.736243 0.890001
v -1.761587 3.739007 0.000001
v -1.523129 3.736244 -0.889999
v -0.871648 3.728695 -1.541524
v 0.018292 3.718383 -1.780000
v 0.892694 2.340112 -1.541525
v 1.544181 2.333035 -0.890000
v 1.782641 2.330445 0.000001
v 1.544181 2.333035 0.890000
v 0.892694 2.340111 1.541525
v 0.002746 2.349779 1.780000
v -0.887201 2.359446 1.541526
v -1.538688 2.366523 0.890001
v -1.777149 2.369113 0.000001
v -1.538688 2.366524 -0.889999
v -0.887202 2.359447 -1.541525
v 0.002746 2.349780 -1.780000
v 0.879347 1.052467 -1.541525
v 1.530842 1.046282 -0.890000
v 1.769306 1.044018 0.000000
v 1.530842 1.046281 0.890000
v 0.879346 1.052466 1.541525
v -0.010613 1.060914 1.780000
v -0.900573 1.069363 1.541526
v -1.552069 1.075548 0.890001
v -1.790534 1.077812 0.000001
v -1.552070 1.075548 -0.889999
v -0.900574 1.069364 -1.541525
v -0.010614 1.060915 -1.780000
v 0.869283 -0.114897 -1.541525
v 1.520790 -0.119696 -0.890000
v 1.759258 -0.121453 0.000000
v 1.520790 -0.119697 0.890000
v 0.869283 -0.114897 1.541525
v -0.020693 -0.108342 1.780000
v -0.910669 -0.101785 1.541525
v -1.562176 -0.096986 0.890001
v -1.800645 -0.095229 0.000001
v -1.562177 -0.096985 -0.889999
v -0.910670 -0.101785 -1.541525
v -0.020694 -0.108341 -1.780000
vn 0.5089 0.0285 -0.8603
vn 0.8677 0.0508 -0.4944
vn 0.9982 0.0593 -0.0000
vn 0.8677 0.0508 0.4944
vn 0.5089 0.0285 0.8603
vn 0.0134 0.0020 0.9999
vn -0.4888 -0.0147 0.8723
vn -0.8617 -0.0124 0.5072
vn -1.0000 -0.0059 -0.0000
vn -0.8617 -0.0124 -0.5072
vn -0.4888 -0.0147 -0.8723
vn 0.0134 0.0020 -0.9999
vn 0.5026 0.0169 -0.8644
vn 0.8666 0.0303 -0.4982
vn 0.9994 0.0354 -0.0000
vn 0.8666 0.0303 0.4982
vn 0.5026 0.0169 0.8644
vn 0.0030 0.0008 1.0000
vn -0.4989 -0.0101 0.8666
vn -0.8662 -0.0107 0.4995
vn -1.0000 -0.0083 -0.0000
vn -0.8662 -0.0107 -0.4995
vn -0.4989 -0.0101 -0.8666
vn 0.0030 0.0008 -1.0000
vn 0.5007 0.0028 -0.8656
vn 0.8663 0.0048 -0.4996
vn 1.0000 0.0056 -0.0000
vn 0.8663 0.0048 0.4996
vn 0.5007 0.0028 0.8656
vn 0.0009 -0.0000 1.0000
vn -0.4993 -0.0026 0.8664
vn -0.8658 -0.0045 0.5004
vn -1.0000 -0.0051 -0.0000
vn -0.8658 -0.0045 -0.5004
vn -0.4993 -0.0026 -0.8664
vn 0.0009 -0.0000 -1.0000
vn 0.5003 -0.0015 -0.8658
vn 0.8661 -0.0026 -0.4998
vn 1.0000 -0.0030 -0.0000
vn 0.8661 -0.0026 0.4998
vn 0.5003 -0.0015 0.8658
vn 0.0004 -0.0000 1.0000
vn -0.4997 0.0015 0.8662
vn -0.8659 0.0026 0.5002
vn -1.0000 0.0030 -0.0000
vn -0.8659 0.0026 -0.5002
vn -0.4997 0.0015 -0.8662
vn 0.0004 -0.0000 -1.0000
vn 0.5002 -0.0036 -0.8659
vn 0.8661 -0.0062 -0.4999
vn 1.0000 -0.0071 -0.0000
vn 0.8661 -0.0062 0.4999
vn 0.5002 -0.0036 0.8659
vn 0.0002 -0.0000 1.0000
vn -0.4998 0.0036 0.8661
vn -0.8659 0.0062 0.5001
vn -1.0000 0.0071 -0.0000
vn -0.8659 0.0062 -0.5001
vn -0.4998 0.0036 -0.8661
vn 0.0002 -0.0000 -1.0000
vn 0.5001 -0.0047 -0.8660
vn 0.8660 -0.0082 -0.4999
vn 1.0000 -0.0095 -0.0000
vn 0.8660 -0.0082 0.4999
vn 0.5001 -0.0047 0.8660
vn 0.0001 -0.0000 1.0000
vn -0.4999 0.0047 0.8661
vn -0.8660 0.0082 0.5001
vn -1.0000 0.0095 -0.0000
vn -0.8660 0.0082 -0.5001
vn -0.4999 0.0047 -0.8661
vn 0.0001 -0.0000 -1.0000
vn 0.5000 -0.0054 -0.8660
vn 0.8660 -0.0094 -0.5000
vn 0.9999 -0.0109 -0.0000
vn 0.8660 -0.0094 0.5000
vn 0.5000 -0.0054 0.8660
vn -0.4999 0.0054 0.8661
vn -0.8660 0.0094 0.5000
vn -0.9999 0.0109 -0.0000
vn -0.8660 0.0094 -0.5000
vn -0.4999 0.0054 -0.8661
vn 0.5000 -0.0058 -0.8660
vn 0.8660 -0.0100 -0.5000
vn 0.9999 -0.0116 -0.0000
vn 0.8660 -0.0100 0.5000
vn 0.5000 -0.0058 0.8660
vn -0.0000 -0.0000 1.0000
vn -0.4999 0.0058 0.8660
vn -0.8660 0.0100 0.5000
vn -0.9999 0.0116 -0.0000
vn -0.8660 0.0100 -0.5000
vn -0.4999 0.0058 -0.8660
vn -0.0000 -0.0000 -1.0000
vn 0.5000 -0.0059 -0.8660
vn 0.8660 -0.0102 -0.5000
vn 0.9999 -0.0118 -0.0000
vn 0.8660 -0.0102 0.5000
vn 0.5000 -0.0059 0.8660
vn -0.5000 0.0059 0.8660
vn -0.8660 0.0102 0.5000
vn -0.9999 0.0118 -0.0000
vn -0.8660 0.0102 -0.5000
vn -0.5000 0.0059 -0.8660
vn 0.4999 -0.0058 -0.8660
vn 0.4999 -0.0058 0.8660
vn -0.5000 0.0058 0.8660
vn -0.5000 0.0058 -0.8660
vn 0.4999 -0.0054 -0.8661
vn 0.4999 -0.0054 0.8661
vn -0.0001 -0.0000 1.0000
vn -0.5000 0.0054 0.8660
vn -0.5000 0.0054 -0.8660
vn -0.0001 -0.0000 -1.0000
vn 0.4999 -0.0047 -0.8661
vn 0.8660 -0.0082 -0.5001
vn 0.8660 -0.0082 0.5001
vn 0.4999 -0.0047 0.8661
vn -0.5001 0.0047 0.8660
vn -0.8660 0.0082 0.4999
vn -0.8660 0.0082 -0.4999
vn -0.5001 0.0047 -0.8660
vn 0.4998 -0.0043 -0.8661
vn 0.8659 -0.0075 -0.5001
vn 1.0000 -0.0086 -0.0000
vn 0.8659 -0.0075 0.5001
vn 0.4998 -0.0043 0.8661
vn -0.0002 -0.0000 1.0000
vn -0.5001 0.0043 0.8659
vn -0.8660 0.0075 0.4999
vn -1.0000 0.0086 -0.0000
vn -0.8660 0.0075 -0.4999
vn -0.5001 0.0043 -0.8659
vn -0.0002 -0.0000 -1.0000
vt 0.000000 1.000000
vt 0.083333 1.000000
vt 0.083333 0.916667
vt 0.000000 0.916667
vt 0.000000 0.083333
vt 0.083333 0.083333
vt 0.083333 0.000000
vt 0.000000 0.000000
vt 0.000000 0.166667
vt 0.083333 0.166667
vt 0.000000 0.250000
vt 0.083333 0.250000
vt 0.000000 0.333333
vt 0.083333 0.333333
vt 0.000000 0.416667
vt 0.083333 0.416667
vt 0.000000 0.500000
vt 0.083333 0.500000
vt 0.000000 0.583333
vt 0.083333 0.583333
vt 0.000000 0.666667
vt 0.083333 0.666667
vt 0.000000 0.750000
vt 0.083333 0.750000
vt 0.000000 0.833333
vt 0.083333 0.833333
vt 0.166667 1.000000
vt 0.166667 0.916667
vt 0.166667 0.083333
vt 0.166667 0.000000
vt 0.166667 0.166667
vt 0.166667 0.250000
vt 0.166667 0.333333
vt 0.166667 0.416667
vt 0.166667 0.500000
vt 0.166667 0.583333
vt 0.166667 0.666667
vt 0.166667 0.750000
vt 0.166667 0.833333
vt 0.250000 1.000000
vt 0.250000 0.916667
vt 0.250000 0.083333
vt 0.250000 0.000000
vt 0.250000 0.166667
vt 0.250000 0.250000
vt 0.250000 0.333333
vt 0.250000 0.416667
vt 0.250000 0.500000
vt 0.250000 0.583333
vt 0.250000 0.666667
vt 0.250000 0.750000
vt 0.250000 0.833333
vt 0.333333 1.000000
vt 0.333333 0.916667
vt 0.333333 0.083333
vt 0.333333 0.000000
vt 0.333333 0.166667
vt 0.333333 0.250000
vt 0.333333 0.333333
vt 0.333333 0.416667
vt 0.333333 0.500000
vt 0.333333 0.583333
vt 0.333333 0.666667
vt 0.333333 0.750000
vt 0.333333 0.833333
vt 0.416667 1.000000
vt 0.416667 0.916667
vt 0.416667 0.083333
vt 0.416667 0.000000
vt 0.416667 0.166667
vt 0.416667 0.250000
vt 0.416667 0.333333
vt 0.416667 0.416667
vt 0.416667 0.500000
vt 0.416667 0.583333
vt 0.416667 0.666667
vt 0.416667 0.750000
vt 0.416667 0.833333
vt 0.500000 1.000000
vt 0.500000 0.916667
vt 0.500000 0.083333
vt 0.500000 0.000000
vt 0.500000 0.166667
vt 0.500000 0.250000
vt 0.500000 0.333333
vt 0.500000 0.416667
vt 0.500000 0.500000
vt 0.500000 0.583333
vt 0.500000 0.666667
vt 0.500000 0.750000
vt 0.500000 0.833333
vt 0.583333 1.000000
vt 0.583333 0.916667
vt 0.583333 0.083333
vt 0.583333 0.000000
vt 0.583333 0.166667
vt 0.583333 0.250000
vt 0.583333 0.333333
vt 0.583333 0.416667
vt 0.583333 0.500000
vt 0.583333 0.583333
vt 0.583333 0.666667
vt 0.583333 0.750000
vt 0.583333 0.833333
vt 0.666667 1.000000
vt 0.666667 0.916667
vt 0.666667 0.083333
vt 0.666667 0.000000
vt 0.666667 0.166667
vt 0.666667 0.250000
vt 0.666667 0.333333
vt 0.666667 0.416667
vt 0.666667 0.500000
vt 0.666667 0.583333
vt 0.666667 0.666667
vt 0.666667 0.750000
vt 0.666667 0.833333
vt 0.750000 1.000000
vt 0.750000 0.916667
vt 0.750000 0.083333
vt 0.750000 0.000000
vt 0.750000 0.166667
vt 0.750000 0.250000
vt 0.750000 0.333333
vt 0.750000 0.416667
vt 0.750000 0.500000
vt 0.750000 0.583333
vt 0.750000 0.666667
vt 0.750000 0.750000
vt 0.750000 0.833333
vt 0.833333 1.000000
vt 0.833333 0.916667
vt 0.833333 0.083333
vt 0.833333 0.000000
vt 0.833333 0.166667
vt 0.833333 0.250000
vt 0.833333 0.333333
vt 0.833333 0.416667
vt 0.833333 0.500000
vt 0.833333 0.583333
vt 0.833333 0.666667
vt 0.833333 0.750000
vt 0.833333 0.833333
vt 0.916667 1.000000
vt 0.916667 0.916667
vt 0.916667 0.083333
vt 0.916667 0.000000
vt 0.916667 0.166667
vt 0.916667 0.250000
vt 0.916667 0.333333
vt 0.916667 0.416667
vt 0.916667 0.500000
vt 0.916667 0.583333
vt 0.916667 0.666667
vt 0.916667 0.750000
vt 0.916667 0.833333
vt 1.000000 1.000000
vt 1.000000 0.916667
vt 1.000000 0.083333
vt 1.000000 0.000000
vt 1.000000 0.166667
vt 1.000000 0.250000
vt 1.000000 0.333333
vt 1.000000 0.416667
vt 1.000000 0.500000
vt 1.000000 0.583333
vt 1.000000 0.666667
vt 1.000000 0.750000
vt 1.000000 0.833333
s 1
f 157/170/135 169/171/147 180/172/158 168/173/146
f 158/174/136 170/175/148 169/176/147 157/177/135
f 159/178/137 171/179/149 170/175/148 158/174/136
f 160/180/138 172/181/150 171/179/149 159/178/137
f 161/182/139 173/183/151 172/181/150 160/180/138
f 162/184/140 174/185/152 173/183/151 161/182/139
f 163/186/141 175/187/153 174/185/152 162/184/140
f 164/188/142 176/189/154 175/187/153 163/186/141
f 165/190/143 177/191/155 176/189/154 164/188/142
f 166/192/144 178/193/156 177/191/155 165/190/143
f 167/194/145 179/195/157 178/193/156 166/192/144
f 168/173/146 180/172/158 179/195/157 167/194/145
f 169/171/147 181/196/159 192/197/170 180/172/158
f 170/175/148 182/198/160 181/199/159 169/176/147
f 171/179/149 183/200/161 182/198/160 170/175/148
f 172/181/150 184/201/162 183/200/161 171/179/149
f 173/183/151 185/202/163 184/201/162 172/181/150
f 174/185/152 186/203/164 185/202/163 173/183/151
f 175/187/153 187/204/165 186/203/164 174/185/152
f 176/189/154 188/205/166 187/204/165 175/187/153
f 177/191/155 189/206/167 188/205/166 176/189/154
f 178/193/156 190/207/168 189/206/167 177/191/155
f 179/195/157 191/208/169 190/207/168 178/193/156
f 180/172/158 192/197/170 191/208/169 179/195/157
f 181/196/159 193/209/171 204/210/182 192/197/170
f 182/198/160 194/211/172 193/212/171 181/199/159
f 183/200/161 195/213/173 194/211/172 182/198/160
f 184/201/162 196/214/174 195/213/173 183/200/161
f 185/202/163 197/215/175 196/214/174 184/201/162
f 186/203/164 198/216/176 197/215/175 185/202/163
f 187/204/165 199/217/177 198/216/176 186/203/164
f 188/205/166 200/218/178 199/217/177 187/204/165
f 189/206/167 201/219/179 200/218/178 188/205/166
f 190/207/168 202/220/180 201/219/179 189/206/167
f 191/208/169 203/221/181 202/220/180 190/207/168
f 192/197/170 204/210/182 203/221/181 191/208/169
f 193/209/171 205/222/183 216/223/194 204/210/182
f 194/211/172 206/224/184 205/225/183 193/212/171
f 195/213/173 207/226/185 206/224/184 194/211/172
f 196/214/174 208/227/186 207/226/185 195/213/173
f 197/215/175 209/228/187 208/227/186 196/214/174
f 198/216/176 210/229/188 209/228/187 197/215/175
f 199/217/177 211/230/189 210/229/188 198/216/176
f 200/218/178 212/231/190 211/230/189 199/217/177
f 201/219/179 213/232/191 212/231/190 200/218/178
f 202/220/180 214/233/192 213/232/191 201/219/179
f 203/221/181 215/234/193 214/233/192 202/220/180
f 204/210/182 216/223/194 215/234/193 203/221/181
f 205/222/183 217/235/195 228/236/206 216/223/194
f 206/224/184 218/237/196 217/238/195 205/225/183
f 207/226/185 219/239/197 218/237/196 206/224/184
f 208/227/186 220/240/198 219/239/197 207/226/185
f 209/228/187 221/241/199 220/240/198 208/227/186
f 210/229/188 222/242/200 221/241/199 209/228/187
f 211/230/189 223/243/201 222/242/200 210/229/188
f 212/231/190 224/244/202 223/243/201 211/230/189
f 213/232/191 225/245/203 224/244/202 212/231/190
f 214/233/192 226/246/204 225/245/203 213/232/191
f 215/234/193 227/247/205 226/246/204 214/233/192
f 216/223/194 228/236/206 227/247/205 215/234/193
f 217/235/195 229/248/207 240/249/206 228/236/206
f 218/237/196 230/250/208 229/251/207 217/238/195
f 219/239/197 231/252/209 230/250/208 218/237/196
f 220/240/198 232/253/210 231/252/209 219/239/197
f 221/241/199 233/254/211 232/253/210 220/240/198
f 222/242/200 234/255/200 233/254/211 221/241/199
f 223/243/201 235/256/212 234/255/200 222/242/200
f 224/244/202 236/257/213 235/256/212 223/243/201
f 225/245/203 237/258/214 236/257/213 224/244/202
f 226/246/204 238/259/215 237/258/214 225/245/203
f 227/247/205 239/260/216 238/259/215 226/246/204
f 228/236/206 240/249/206 239/260/216 227/247/205
f 229/248/207 241/261/217 252/262/228 240/249/206
f 230/250/208 242/263/218 241/264/217 229/251/207
f 231/252/209 243/265/219 242/263/218 230/250/208
f 232/253/210 244/266/220 243/265/219 231/252/209
f 233/254/211 245/267/221 244/266/220 232/253/210
f 234/255/200 246/268/222 245/267/221 233/254/211
f 235/256/212 247/269/223 246/268/222 234/255/200
f 236/257/213 248/270/224 247/269/223 235/256/212
f 237/258/214 249/271/225 248/270/224 236/257/213
f 238/259/215 250/272/226 249/271/225 237/258/214
f 239/260/216 251/273/227 250/272/226 238/259/215
f 240/249/206 252/262/228 251/273/227 239/260/216
f 241/261/217 253/274/229 264/275/228 252/262/228
f 242/263/218 254/276/230 253/277/229 241/264/217
f 243/265/219 255/278/231 254/276/230 242/263/218
f 244/266/220 256/279/232 255/278/231 243/265/219
f 245/267/221 257/280/233 256/279/232 244/266/220
f 246/268/222 258/281/222 257/280/233 245/267/221
f 247/269/223 259/282/234 258/281/222 246/268/222
f 248/270/224 260/283/235 259/282/234 247/269/223
f 249/271/225 261/284/236 260/283/235 248/270/224
f 250/272/226 262/285/237 261/284/236 249/271/225
f 251/273/227 263/286/238 262/285/237 250/272/226
f 252/262/228 264/275/228 263/286/238 251/273/227
f 253/274/229 265/287/239 276/288/228 264/275/228
f 254/276/230 266/289/218 265/290/239 253/277/229
f 255/278/231 267/291/219 266/289/218 254/276/230
f 256/279/232 268/292/220 267/291/219 255/278/231
f 257/280/233 269/293/240 268/292/220 256/279/232
f 258/281/222 270/294/222 269/293/240 257/280/233
f 259/282/234 271/295/241 270/294/222 258/281/222
f 260/283/235 272/296/224 271/295/241 259/282/234
f 261/284/236 273/297/225 272/296/224 260/283/235
f 262/285/237 274/298/226 273/297/225 261/284/236
f 263/286/238 275/299/242 274/298/226 262/285/237
f 264/275/228 276/288/228 275/299/242 263/286/238
f 265/287/239 277/300/243 288/301/248 276/288/228
f 266/289/218 278/302/208 277/303/243 265/290/239
f 267/291/219 279/304/209 278/302/208 266/289/218
f 268/292/220 280/305/210 279/304/209 267/291/219
f 269/293/240 281/306/244 280/305/210 268/292/220
f 270/294/222 282/307/245 281/306/244 269/293/240
f 271/295/241 283/308/246 282/307/245 270/294/222
f 272/296/224 284/309/213 283/308/246 271/295/241
f 273/297/225 285/310/214 284/309/213 272/296/224
f 274/298/226 286/311/215 285/310/214 273/297/225
f 275/299/242 287/312/247 286/311/215 274/298/226
f 276/288/228 288/301/248 287/312/247 275/299/242
f 277/300/243 289/313/249 300/314/248 288/301/248
f 278/302/208 290/315/250 289/316/249 277/303/243
f 279/304/209 291/317/197 290/315/250 278/302/208
f 280/305/210 292/318/251 291/317/197 279/304/209
f 281/306/244 293/319/252 292/318/251 280/305/210
f 282/307/245 294/320/245 293/319/252 281/306/244
f 283/308/246 295/321/253 294/320/245 282/307/245
f 284/309/213 296/322/254 295/321/253 283/308/246
f 285/310/214 297/323/203 296/322/254 284/309/213
f 286/311/215 298/324/255 297/323/203 285/310/214
f 287/312/247 299/325/256 298/324/255 286/311/215
f 288/301/248 300/314/248 299/325/256 287/312/247
f 289/313/249 301/326/257 312/327/268 300/314/248
f 290/315/250 302/328/258 301/329/257 289/316/249
f 291/317/197 303/330/259 302/328/258 290/315/250
f 292/318/251 304/331/260 303/330/259 291/317/197
f 293/319/252 305/332/261 304/331/260 292/318/251
f 294/320/245 306/333/262 305/332/261 293/319/252
f 295/321/253 307/334/263 306/333/262 294/320/245
f 296/322/254 308/335/264 307/334/263 295/321/253
f 297/323/203 309/336/265 308/335/264 296/322/254
f 298/324/255 310/337/266 309/336/265 297/323/203
f 299/325/256 311/338/267 310/337/266 298/324/255
f 300/314/248 312/327/268 311/338/267 299/325/256
